<svg id="flat" height="512" viewBox="0 0 512 512" width="512" xmlns="http://www.w3.org/2000/svg"><path d="m120 352h272v136h-272z" fill="#eda600"/><path d="m456 148.07007a87.14662 87.14662 0 0 1 -16.24 50.65993 190.75623 190.75623 0 0 0 -31.78 73.36l-7.98 39.9-8 40.01h-272l-15.98-79.91a190.65383 190.65383 0 0 0 -12-38.36 190.8418 190.8418 0 0 0 -19.78-35 87.153 87.153 0 0 1 39.88988-132.11l81.97022-31.23a173.98768 173.98768 0 0 1 53.8999-11.21007q3.98987-.1798 8-.17993 4.00488 0 8 .17993a173.85357 173.85357 0 0 1 53.8999 11.21007l10.1001 3.85 16 6.09 55.87012 21.29c.03979.02.08984.0299.12988.04992a87.15175 87.15175 0 0 1 56 81.40015z" fill="#f6bb00"/><g fill="#eda600"><path d="m264 24.17993v327.82007h-16v-327.82007q3.98987-.1798 8-.17993 4.00488 0 8 .17993z"/><path d="m168 176h16v176h-16z"/><path d="m344 45.33v306.67h-16v-312.76z"/><path d="m416 74.77v168.90993a189.80326 189.80326 0 0 0 -8.02 28.41l-7.98 39.90007v-245.32008a87.03189 87.03189 0 0 1 16 8.10008z"/></g></svg>